# xmcd
#
# Track frame offsets:
#	150
#	13813
#	29000
#	42149
#	60853
#	74727
#	88577
#	106672
#	122776
#	138980
#
# Disc length: 2099 seconds
#
# Revision: 1
# Processed by: cddbd v1.5.2PL0 Copyright (c) Steve Scherf et al.
# Submitted via: audiograbber 1.83.01
#
DISCID=8408310a
DTITLE=Josh Ward - Holding Me Together
DYEAR=2015
DGENRE=Country
TTITLE0=Last Night's Makeup
TTITLE1=Broken Heart
TTITLE2=Highway
TTITLE3=Whiskey and Whitley
TTITLE4=Somewhere Between Right and Wrong
TTITLE5=What I'm Doing
TTITLE6=Between An Old Memory and Me
TTITLE7=Change My Mind
TTITLE8=You Don't Have To Be Lonely
TTITLE9=Together
EXTD=UPC: 6 62582 72202 4
EXTT0=
EXTT1=
EXTT2=
EXTT3=
EXTT4=
EXTT5=
EXTT6=
EXTT7=
EXTT8=
EXTT9=
PLAYORDER=
